<!-- <svg width="165" height="30" viewBox="0 0 165 30" fill="none" xmlns="http://www.w3.org/2000/svg">
<path d="M9.542 11.22C11.258 11.22 12.6187 11.7227 13.624 12.728C14.6467 13.716 15.158 15.1633 15.158 17.07V25H13.312V17.252C13.312 15.8307 12.9567 14.7473 12.246 14.002C11.5353 13.2567 10.5213 12.884 9.204 12.884C7.73067 12.884 6.56067 13.326 5.694 14.21C4.84467 15.0767 4.42 16.2813 4.42 17.824V25H2.574V11.324H4.342V13.846C4.84467 13.014 5.538 12.3727 6.422 11.922C7.32333 11.454 8.36333 11.22 9.542 11.22ZM25.8105 25.13C24.4932 25.13 23.3058 24.8353 22.2485 24.246C21.1912 23.6393 20.3592 22.8073 19.7525 21.75C19.1458 20.6927 18.8425 19.4967 18.8425 18.162C18.8425 16.8273 19.1458 15.6313 19.7525 14.574C20.3592 13.5167 21.1912 12.6933 22.2485 12.104C23.3058 11.5147 24.4932 11.22 25.8105 11.22C27.1278 11.22 28.3152 11.5147 29.3725 12.104C30.4298 12.6933 31.2532 13.5167 31.8425 14.574C32.4492 15.6313 32.7525 16.8273 32.7525 18.162C32.7525 19.4967 32.4492 20.6927 31.8425 21.75C31.2532 22.8073 30.4298 23.6393 29.3725 24.246C28.3152 24.8353 27.1278 25.13 25.8105 25.13ZM25.8105 23.492C26.7812 23.492 27.6478 23.2753 28.4105 22.842C29.1905 22.3913 29.7972 21.7587 30.2305 20.944C30.6638 20.1293 30.8805 19.202 30.8805 18.162C30.8805 17.122 30.6638 16.1947 30.2305 15.38C29.7972 14.5653 29.1905 13.9413 28.4105 13.508C27.6478 13.0573 26.7812 12.832 25.8105 12.832C24.8398 12.832 23.9645 13.0573 23.1845 13.508C22.4218 13.9413 21.8152 14.5653 21.3645 15.38C20.9312 16.1947 20.7145 17.122 20.7145 18.162C20.7145 19.202 20.9312 20.1293 21.3645 20.944C21.8152 21.7587 22.4218 22.3913 23.1845 22.842C23.9645 23.2753 24.8398 23.492 25.8105 23.492ZM43.7233 24.168C43.3766 24.48 42.9433 24.7227 42.4233 24.896C41.9206 25.052 41.3919 25.13 40.8373 25.13C39.5546 25.13 38.5666 24.7833 37.8733 24.09C37.1799 23.3967 36.8333 22.4173 36.8333 21.152V12.884H34.3893V11.324H36.8333V8.334H38.6793V11.324H42.8393V12.884H38.6793V21.048C38.6793 21.8627 38.8786 22.4867 39.2773 22.92C39.6933 23.336 40.2826 23.544 41.0453 23.544C41.4266 23.544 41.7906 23.4833 42.1373 23.362C42.5013 23.2407 42.8133 23.0673 43.0733 22.842L43.7233 24.168ZM58.5093 18.734H47.0693C47.1733 20.1553 47.7193 21.308 48.7073 22.192C49.6953 23.0587 50.9433 23.492 52.4513 23.492C53.3007 23.492 54.0807 23.3447 54.7913 23.05C55.502 22.738 56.1173 22.2873 56.6373 21.698L57.6773 22.894C57.0707 23.622 56.308 24.1767 55.3893 24.558C54.488 24.9393 53.4913 25.13 52.3993 25.13C50.9953 25.13 49.7473 24.8353 48.6553 24.246C47.5807 23.6393 46.74 22.8073 46.1333 21.75C45.5267 20.6927 45.2233 19.4967 45.2233 18.162C45.2233 16.8273 45.5093 15.6313 46.0813 14.574C46.6707 13.5167 47.468 12.6933 48.4733 12.104C49.496 11.5147 50.64 11.22 51.9053 11.22C53.1707 11.22 54.306 11.5147 55.3113 12.104C56.3167 12.6933 57.1053 13.5167 57.6773 14.574C58.2493 15.614 58.5353 16.81 58.5353 18.162L58.5093 18.734ZM51.9053 12.806C50.588 12.806 49.4787 13.2307 48.5773 14.08C47.6933 14.912 47.1907 16.004 47.0693 17.356H56.7673C56.646 16.004 56.1347 14.912 55.2333 14.08C54.3493 13.2307 53.24 12.806 51.9053 12.806ZM74.1488 15.614C75.3448 15.874 76.2634 16.394 76.9048 17.174C77.5634 17.9367 77.8928 18.9247 77.8928 20.138C77.8928 21.698 77.3121 22.9027 76.1508 23.752C75.0068 24.584 73.3081 25 71.0548 25H62.6828V6.8H70.5348C72.5628 6.8 74.1314 7.20733 75.2408 8.022C76.3674 8.83667 76.9308 9.98933 76.9308 11.48C76.9308 12.4853 76.6794 13.3433 76.1768 14.054C75.6914 14.7473 75.0154 15.2673 74.1488 15.614ZM64.6068 8.386V14.99H70.4048C71.8781 14.99 73.0134 14.7127 73.8108 14.158C74.6081 13.586 75.0067 12.7627 75.0067 11.688C75.0067 10.6133 74.6081 9.79867 73.8108 9.244C73.0134 8.672 71.8781 8.386 70.4048 8.386H64.6068ZM71.0288 23.414C72.6581 23.414 73.8888 23.1367 74.7208 22.582C75.5528 22.0273 75.9688 21.1607 75.9688 19.982C75.9688 17.7113 74.3221 16.576 71.0288 16.576H64.6068V23.414H71.0288ZM86.6783 11.22C88.4636 11.22 89.833 11.6707 90.7863 12.572C91.7396 13.456 92.2163 14.7733 92.2163 16.524V25H90.4483V22.868C90.0323 23.5787 89.417 24.1333 88.6023 24.532C87.805 24.9307 86.8516 25.13 85.7423 25.13C84.217 25.13 83.0036 24.766 82.1023 24.038C81.201 23.31 80.7503 22.348 80.7503 21.152C80.7503 19.9907 81.1663 19.0547 81.9983 18.344C82.8476 17.6333 84.191 17.278 86.0283 17.278H90.3703V16.446C90.3703 15.2673 90.041 14.3747 89.3823 13.768C88.7236 13.144 87.7616 12.832 86.4963 12.832C85.6296 12.832 84.7976 12.9793 84.0003 13.274C83.203 13.5513 82.5183 13.9413 81.9463 14.444L81.1143 13.066C81.8076 12.4767 82.6396 12.026 83.6103 11.714C84.581 11.3847 85.6036 11.22 86.6783 11.22ZM86.0283 23.674C87.0683 23.674 87.961 23.44 88.7063 22.972C89.4516 22.4867 90.0063 21.7933 90.3703 20.892V18.656H86.0803C83.7403 18.656 82.5703 19.4707 82.5703 21.1C82.5703 21.8973 82.8736 22.53 83.4803 22.998C84.087 23.4487 84.9363 23.674 86.0283 23.674ZM100.896 25.13C99.7869 25.13 98.7209 24.974 97.6983 24.662C96.6929 24.3327 95.9043 23.9253 95.3323 23.44L96.1643 21.984C96.7363 22.4347 97.4556 22.8073 98.3223 23.102C99.1889 23.3793 100.09 23.518 101.026 23.518C102.274 23.518 103.193 23.3273 103.782 22.946C104.389 22.5473 104.692 21.9927 104.692 21.282C104.692 20.7793 104.528 20.3893 104.198 20.112C103.869 19.8173 103.453 19.6007 102.95 19.462C102.448 19.306 101.78 19.1587 100.948 19.02C99.8389 18.812 98.9463 18.604 98.2703 18.396C97.5943 18.1707 97.0136 17.798 96.5283 17.278C96.0603 16.758 95.8263 16.0387 95.8263 15.12C95.8263 13.976 96.3029 13.04 97.2563 12.312C98.2096 11.584 99.5356 11.22 101.234 11.22C102.118 11.22 103.002 11.3413 103.886 11.584C104.77 11.8093 105.498 12.1127 106.07 12.494L105.264 13.976C104.138 13.196 102.794 12.806 101.234 12.806C100.056 12.806 99.1629 13.014 98.5563 13.43C97.9669 13.846 97.6723 14.392 97.6723 15.068C97.6723 15.588 97.8369 16.004 98.1663 16.316C98.5129 16.628 98.9376 16.862 99.4403 17.018C99.9429 17.1567 100.636 17.304 101.52 17.46C102.612 17.668 103.488 17.876 104.146 18.084C104.805 18.292 105.368 18.6473 105.836 19.15C106.304 19.6527 106.538 20.346 106.538 21.23C106.538 22.426 106.036 23.3793 105.03 24.09C104.042 24.7833 102.664 25.13 100.896 25.13ZM121.859 18.734H110.419C110.523 20.1553 111.069 21.308 112.057 22.192C113.045 23.0587 114.293 23.492 115.801 23.492C116.65 23.492 117.43 23.3447 118.141 23.05C118.852 22.738 119.467 22.2873 119.987 21.698L121.027 22.894C120.42 23.622 119.658 24.1767 118.739 24.558C117.838 24.9393 116.841 25.13 115.749 25.13C114.345 25.13 113.097 24.8353 112.005 24.246C110.93 23.6393 110.09 22.8073 109.483 21.75C108.876 20.6927 108.573 19.4967 108.573 18.162C108.573 16.8273 108.859 15.6313 109.431 14.574C110.02 13.5167 110.818 12.6933 111.823 12.104C112.846 11.5147 113.99 11.22 115.255 11.22C116.52 11.22 117.656 11.5147 118.661 12.104C119.666 12.6933 120.455 13.5167 121.027 14.574C121.599 15.614 121.885 16.81 121.885 18.162L121.859 18.734ZM115.255 12.806C113.938 12.806 112.828 13.2307 111.927 14.08C111.043 14.912 110.54 16.004 110.419 17.356H120.117C119.996 16.004 119.484 14.912 118.583 14.08C117.699 13.2307 116.59 12.806 115.255 12.806Z" fill="#EAEAEA"/>
<path d="M141.9 26.9667L133.467 17L141.9 7.03333L139.333 4L128.333 17L139.333 30L141.9 26.9667ZM151.433 26.9667L159.867 17L151.433 7.03333L154 4L165 17L154 30L151.433 26.9667Z" fill="#7DC3C1"/>
<path d="M145.382 22.0583L146.732 23.654L148.082 22.0583L148.082 12.6459L145.382 12.6459L145.382 22.0583ZM148.082 10.1779C148.082 9.84603 147.855 9.57796 147.574 9.57796L145.889 9.57796C145.608 9.57796 145.382 9.84603 145.382 10.1779L145.382 11.7353L148.082 11.7353V10.1779V10.1779Z" fill="#7DC3C1"/>
</svg> -->

<svg width="165" height="30" viewBox="0 0 165 30" fill="none" xmlns="http://www.w3.org/2000/svg">
<path d="M9.542 11.22C11.258 11.22 12.6187 11.7227 13.624 12.728C14.6467 13.716 15.158 15.1633 15.158 17.07V25H13.312V17.252C13.312 15.8307 12.9567 14.7473 12.246 14.002C11.5353 13.2567 10.5213 12.884 9.204 12.884C7.73067 12.884 6.56067 13.326 5.694 14.21C4.84467 15.0767 4.42 16.2813 4.42 17.824V25H2.574V11.324H4.342V13.846C4.84467 13.014 5.538 12.3727 6.422 11.922C7.32333 11.454 8.36333 11.22 9.542 11.22ZM25.8105 25.13C24.4932 25.13 23.3058 24.8353 22.2485 24.246C21.1912 23.6393 20.3592 22.8073 19.7525 21.75C19.1458 20.6927 18.8425 19.4967 18.8425 18.162C18.8425 16.8273 19.1458 15.6313 19.7525 14.574C20.3592 13.5167 21.1912 12.6933 22.2485 12.104C23.3058 11.5147 24.4932 11.22 25.8105 11.22C27.1278 11.22 28.3152 11.5147 29.3725 12.104C30.4298 12.6933 31.2532 13.5167 31.8425 14.574C32.4492 15.6313 32.7525 16.8273 32.7525 18.162C32.7525 19.4967 32.4492 20.6927 31.8425 21.75C31.2532 22.8073 30.4298 23.6393 29.3725 24.246C28.3152 24.8353 27.1278 25.13 25.8105 25.13ZM25.8105 23.492C26.7812 23.492 27.6478 23.2753 28.4105 22.842C29.1905 22.3913 29.7972 21.7587 30.2305 20.944C30.6638 20.1293 30.8805 19.202 30.8805 18.162C30.8805 17.122 30.6638 16.1947 30.2305 15.38C29.7972 14.5653 29.1905 13.9413 28.4105 13.508C27.6478 13.0573 26.7812 12.832 25.8105 12.832C24.8398 12.832 23.9645 13.0573 23.1845 13.508C22.4218 13.9413 21.8152 14.5653 21.3645 15.38C20.9312 16.1947 20.7145 17.122 20.7145 18.162C20.7145 19.202 20.9312 20.1293 21.3645 20.944C21.8152 21.7587 22.4218 22.3913 23.1845 22.842C23.9645 23.2753 24.8398 23.492 25.8105 23.492ZM43.7233 24.168C43.3766 24.48 42.9433 24.7227 42.4233 24.896C41.9206 25.052 41.3919 25.13 40.8373 25.13C39.5546 25.13 38.5666 24.7833 37.8733 24.09C37.1799 23.3967 36.8333 22.4173 36.8333 21.152V12.884H34.3893V11.324H36.8333V8.334H38.6793V11.324H42.8393V12.884H38.6793V21.048C38.6793 21.8627 38.8786 22.4867 39.2773 22.92C39.6933 23.336 40.2826 23.544 41.0453 23.544C41.4266 23.544 41.7906 23.4833 42.1373 23.362C42.5013 23.2407 42.8133 23.0673 43.0733 22.842L43.7233 24.168ZM58.5093 18.734H47.0693C47.1733 20.1553 47.7193 21.308 48.7073 22.192C49.6953 23.0587 50.9433 23.492 52.4513 23.492C53.3007 23.492 54.0807 23.3447 54.7913 23.05C55.502 22.738 56.1173 22.2873 56.6373 21.698L57.6773 22.894C57.0707 23.622 56.308 24.1767 55.3893 24.558C54.488 24.9393 53.4913 25.13 52.3993 25.13C50.9953 25.13 49.7473 24.8353 48.6553 24.246C47.5807 23.6393 46.74 22.8073 46.1333 21.75C45.5267 20.6927 45.2233 19.4967 45.2233 18.162C45.2233 16.8273 45.5093 15.6313 46.0813 14.574C46.6707 13.5167 47.468 12.6933 48.4733 12.104C49.496 11.5147 50.64 11.22 51.9053 11.22C53.1707 11.22 54.306 11.5147 55.3113 12.104C56.3167 12.6933 57.1053 13.5167 57.6773 14.574C58.2493 15.614 58.5353 16.81 58.5353 18.162L58.5093 18.734ZM51.9053 12.806C50.588 12.806 49.4787 13.2307 48.5773 14.08C47.6933 14.912 47.1907 16.004 47.0693 17.356H56.7673C56.646 16.004 56.1347 14.912 55.2333 14.08C54.3493 13.2307 53.24 12.806 51.9053 12.806ZM74.1488 15.614C75.3448 15.874 76.2634 16.394 76.9048 17.174C77.5634 17.9367 77.8928 18.9247 77.8928 20.138C77.8928 21.698 77.3121 22.9027 76.1508 23.752C75.0068 24.584 73.3081 25 71.0548 25H62.6828V6.8H70.5348C72.5628 6.8 74.1314 7.20733 75.2408 8.022C76.3674 8.83667 76.9308 9.98933 76.9308 11.48C76.9308 12.4853 76.6794 13.3433 76.1768 14.054C75.6914 14.7473 75.0154 15.2673 74.1488 15.614ZM64.6068 8.386V14.99H70.4048C71.8781 14.99 73.0134 14.7127 73.8108 14.158C74.6081 13.586 75.0067 12.7627 75.0067 11.688C75.0067 10.6133 74.6081 9.79867 73.8108 9.244C73.0134 8.672 71.8781 8.386 70.4048 8.386H64.6068ZM71.0288 23.414C72.6581 23.414 73.8888 23.1367 74.7208 22.582C75.5528 22.0273 75.9688 21.1607 75.9688 19.982C75.9688 17.7113 74.3221 16.576 71.0288 16.576H64.6068V23.414H71.0288ZM86.6783 11.22C88.4636 11.22 89.833 11.6707 90.7863 12.572C91.7396 13.456 92.2163 14.7733 92.2163 16.524V25H90.4483V22.868C90.0323 23.5787 89.417 24.1333 88.6023 24.532C87.805 24.9307 86.8516 25.13 85.7423 25.13C84.217 25.13 83.0036 24.766 82.1023 24.038C81.201 23.31 80.7503 22.348 80.7503 21.152C80.7503 19.9907 81.1663 19.0547 81.9983 18.344C82.8476 17.6333 84.191 17.278 86.0283 17.278H90.3703V16.446C90.3703 15.2673 90.041 14.3747 89.3823 13.768C88.7236 13.144 87.7616 12.832 86.4963 12.832C85.6296 12.832 84.7976 12.9793 84.0003 13.274C83.203 13.5513 82.5183 13.9413 81.9463 14.444L81.1143 13.066C81.8076 12.4767 82.6396 12.026 83.6103 11.714C84.581 11.3847 85.6036 11.22 86.6783 11.22ZM86.0283 23.674C87.0683 23.674 87.961 23.44 88.7063 22.972C89.4516 22.4867 90.0063 21.7933 90.3703 20.892V18.656H86.0803C83.7403 18.656 82.5703 19.4707 82.5703 21.1C82.5703 21.8973 82.8736 22.53 83.4803 22.998C84.087 23.4487 84.9363 23.674 86.0283 23.674ZM100.896 25.13C99.7869 25.13 98.7209 24.974 97.6983 24.662C96.6929 24.3327 95.9043 23.9253 95.3323 23.44L96.1643 21.984C96.7363 22.4347 97.4556 22.8073 98.3223 23.102C99.1889 23.3793 100.09 23.518 101.026 23.518C102.274 23.518 103.193 23.3273 103.782 22.946C104.389 22.5473 104.692 21.9927 104.692 21.282C104.692 20.7793 104.528 20.3893 104.198 20.112C103.869 19.8173 103.453 19.6007 102.95 19.462C102.448 19.306 101.78 19.1587 100.948 19.02C99.8389 18.812 98.9463 18.604 98.2703 18.396C97.5943 18.1707 97.0136 17.798 96.5283 17.278C96.0603 16.758 95.8263 16.0387 95.8263 15.12C95.8263 13.976 96.3029 13.04 97.2563 12.312C98.2096 11.584 99.5356 11.22 101.234 11.22C102.118 11.22 103.002 11.3413 103.886 11.584C104.77 11.8093 105.498 12.1127 106.07 12.494L105.264 13.976C104.138 13.196 102.794 12.806 101.234 12.806C100.056 12.806 99.1629 13.014 98.5563 13.43C97.9669 13.846 97.6723 14.392 97.6723 15.068C97.6723 15.588 97.8369 16.004 98.1663 16.316C98.5129 16.628 98.9376 16.862 99.4403 17.018C99.9429 17.1567 100.636 17.304 101.52 17.46C102.612 17.668 103.488 17.876 104.146 18.084C104.805 18.292 105.368 18.6473 105.836 19.15C106.304 19.6527 106.538 20.346 106.538 21.23C106.538 22.426 106.036 23.3793 105.03 24.09C104.042 24.7833 102.664 25.13 100.896 25.13ZM121.859 18.734H110.419C110.523 20.1553 111.069 21.308 112.057 22.192C113.045 23.0587 114.293 23.492 115.801 23.492C116.65 23.492 117.43 23.3447 118.141 23.05C118.852 22.738 119.467 22.2873 119.987 21.698L121.027 22.894C120.42 23.622 119.658 24.1767 118.739 24.558C117.838 24.9393 116.841 25.13 115.749 25.13C114.345 25.13 113.097 24.8353 112.005 24.246C110.93 23.6393 110.09 22.8073 109.483 21.75C108.876 20.6927 108.573 19.4967 108.573 18.162C108.573 16.8273 108.859 15.6313 109.431 14.574C110.02 13.5167 110.818 12.6933 111.823 12.104C112.846 11.5147 113.99 11.22 115.255 11.22C116.52 11.22 117.656 11.5147 118.661 12.104C119.666 12.6933 120.455 13.5167 121.027 14.574C121.599 15.614 121.885 16.81 121.885 18.162L121.859 18.734ZM115.255 12.806C113.938 12.806 112.828 13.2307 111.927 14.08C111.043 14.912 110.54 16.004 110.419 17.356H120.117C119.996 16.004 119.484 14.912 118.583 14.08C117.699 13.2307 116.59 12.806 115.255 12.806Z" fill="#EAEAEA"/>
<path d="M141.9 26.9667L133.467 17L141.9 7.03333L139.333 4L128.333 17L139.333 30L141.9 26.9667ZM151.433 26.9667L159.867 17L151.433 7.03333L154 4L165 17L154 30L151.433 26.9667Z" fill="#6DA9A8"/>
<path d="M145.382 22.0583L146.732 23.654L148.082 22.0583L148.082 12.6459L145.382 12.6459L145.382 22.0583ZM148.082 10.1779C148.082 9.84603 147.855 9.57796 147.574 9.57796L145.889 9.57796C145.608 9.57796 145.382 9.84603 145.382 10.1779L145.382 11.7353L148.082 11.7353V10.1779V10.1779Z" fill="#6DA9A8"/>
</svg>
